<mxfile host="app.diagrams.net" modified="2023-01-11T20:09:37.184Z" agent="5.0 (Macintosh; Intel Mac OS X 10_15_7) AppleWebKit/537.36 (KHTML, like Gecko) Chrome/108.0.0.0 Safari/537.36" version="20.8.4" etag="DzlWwEfpnJLjgr8aGMpa" type="github">
  <diagram id="TYcSu8tNpFOf0ZvjNcH6" name="Page-1">
    <mxGraphModel dx="1045" dy="656" grid="1" gridSize="10" guides="1" tooltips="1" connect="1" arrows="1" fold="1" page="1" pageScale="1" pageWidth="850" pageHeight="1100" math="0" shadow="0">
      <root>
        <mxCell id="0" />
        <mxCell id="1" parent="0" />
        <mxCell id="Yu3_qK6GPPjBEt-hAF3I-13" style="edgeStyle=orthogonalEdgeStyle;rounded=0;orthogonalLoop=1;jettySize=auto;html=1;" edge="1" parent="1" source="Yu3_qK6GPPjBEt-hAF3I-4" target="Yu3_qK6GPPjBEt-hAF3I-5">
          <mxGeometry relative="1" as="geometry" />
        </mxCell>
        <mxCell id="Yu3_qK6GPPjBEt-hAF3I-4" value="Click interuprteur" style="shape=process;whiteSpace=wrap;html=1;backgroundOutline=1;" vertex="1" parent="1">
          <mxGeometry x="220" y="180" width="120" height="60" as="geometry" />
        </mxCell>
        <mxCell id="Yu3_qK6GPPjBEt-hAF3I-7" value="" style="edgeStyle=orthogonalEdgeStyle;rounded=0;orthogonalLoop=1;jettySize=auto;html=1;" edge="1" parent="1" source="Yu3_qK6GPPjBEt-hAF3I-5" target="Yu3_qK6GPPjBEt-hAF3I-6">
          <mxGeometry relative="1" as="geometry" />
        </mxCell>
        <mxCell id="Yu3_qK6GPPjBEt-hAF3I-10" value="Oui" style="edgeLabel;html=1;align=center;verticalAlign=middle;resizable=0;points=[];" vertex="1" connectable="0" parent="Yu3_qK6GPPjBEt-hAF3I-7">
          <mxGeometry x="-0.2" relative="1" as="geometry">
            <mxPoint y="1" as="offset" />
          </mxGeometry>
        </mxCell>
        <mxCell id="Yu3_qK6GPPjBEt-hAF3I-15" value="" style="edgeStyle=orthogonalEdgeStyle;rounded=0;orthogonalLoop=1;jettySize=auto;html=1;entryX=0.5;entryY=0;entryDx=0;entryDy=0;" edge="1" parent="1" source="Yu3_qK6GPPjBEt-hAF3I-5" target="Yu3_qK6GPPjBEt-hAF3I-23">
          <mxGeometry relative="1" as="geometry">
            <mxPoint x="280" y="480" as="targetPoint" />
          </mxGeometry>
        </mxCell>
        <mxCell id="Yu3_qK6GPPjBEt-hAF3I-16" value="NON" style="edgeLabel;html=1;align=center;verticalAlign=middle;resizable=0;points=[];" vertex="1" connectable="0" parent="Yu3_qK6GPPjBEt-hAF3I-15">
          <mxGeometry x="-0.225" y="1" relative="1" as="geometry">
            <mxPoint as="offset" />
          </mxGeometry>
        </mxCell>
        <mxCell id="Yu3_qK6GPPjBEt-hAF3I-5" value="Est-ce deja alumé" style="rhombus;whiteSpace=wrap;html=1;" vertex="1" parent="1">
          <mxGeometry x="240" y="320" width="80" height="80" as="geometry" />
        </mxCell>
        <mxCell id="Yu3_qK6GPPjBEt-hAF3I-9" value="" style="edgeStyle=orthogonalEdgeStyle;rounded=0;orthogonalLoop=1;jettySize=auto;html=1;" edge="1" parent="1" source="Yu3_qK6GPPjBEt-hAF3I-6" target="Yu3_qK6GPPjBEt-hAF3I-12">
          <mxGeometry relative="1" as="geometry">
            <mxPoint x="560" y="360" as="targetPoint" />
          </mxGeometry>
        </mxCell>
        <mxCell id="Yu3_qK6GPPjBEt-hAF3I-11" value="Oui" style="edgeLabel;html=1;align=center;verticalAlign=middle;resizable=0;points=[];" vertex="1" connectable="0" parent="Yu3_qK6GPPjBEt-hAF3I-9">
          <mxGeometry x="-0.2" y="2" relative="1" as="geometry">
            <mxPoint as="offset" />
          </mxGeometry>
        </mxCell>
        <mxCell id="Yu3_qK6GPPjBEt-hAF3I-18" value="" style="edgeStyle=orthogonalEdgeStyle;rounded=0;orthogonalLoop=1;jettySize=auto;html=1;" edge="1" parent="1" source="Yu3_qK6GPPjBEt-hAF3I-6" target="Yu3_qK6GPPjBEt-hAF3I-17">
          <mxGeometry relative="1" as="geometry" />
        </mxCell>
        <mxCell id="Yu3_qK6GPPjBEt-hAF3I-19" value="Non" style="edgeLabel;html=1;align=center;verticalAlign=middle;resizable=0;points=[];" vertex="1" connectable="0" parent="Yu3_qK6GPPjBEt-hAF3I-18">
          <mxGeometry x="-0.3375" y="-2" relative="1" as="geometry">
            <mxPoint as="offset" />
          </mxGeometry>
        </mxCell>
        <mxCell id="Yu3_qK6GPPjBEt-hAF3I-6" value="Est-ce moins 1 minutes" style="rhombus;whiteSpace=wrap;html=1;" vertex="1" parent="1">
          <mxGeometry x="400" y="320" width="80" height="80" as="geometry" />
        </mxCell>
        <mxCell id="Yu3_qK6GPPjBEt-hAF3I-12" value="On eteint" style="shape=process;whiteSpace=wrap;html=1;backgroundOutline=1;" vertex="1" parent="1">
          <mxGeometry x="590" y="330" width="120" height="60" as="geometry" />
        </mxCell>
        <mxCell id="Yu3_qK6GPPjBEt-hAF3I-21" style="edgeStyle=orthogonalEdgeStyle;rounded=0;orthogonalLoop=1;jettySize=auto;html=1;entryX=0;entryY=0.5;entryDx=0;entryDy=0;" edge="1" parent="1" source="Yu3_qK6GPPjBEt-hAF3I-17" target="Yu3_qK6GPPjBEt-hAF3I-20">
          <mxGeometry relative="1" as="geometry" />
        </mxCell>
        <mxCell id="Yu3_qK6GPPjBEt-hAF3I-22" value="Oui" style="edgeLabel;html=1;align=center;verticalAlign=middle;resizable=0;points=[];" vertex="1" connectable="0" parent="Yu3_qK6GPPjBEt-hAF3I-21">
          <mxGeometry x="-0.24" y="1" relative="1" as="geometry">
            <mxPoint y="1" as="offset" />
          </mxGeometry>
        </mxCell>
        <mxCell id="Yu3_qK6GPPjBEt-hAF3I-17" value="Es-ce moins&lt;br&gt;TimeToExecute" style="rhombus;whiteSpace=wrap;html=1;" vertex="1" parent="1">
          <mxGeometry x="400" y="480" width="80" height="80" as="geometry" />
        </mxCell>
        <mxCell id="Yu3_qK6GPPjBEt-hAF3I-20" value="On laisse Allumé" style="shape=process;whiteSpace=wrap;html=1;backgroundOutline=1;" vertex="1" parent="1">
          <mxGeometry x="580" y="490" width="120" height="60" as="geometry" />
        </mxCell>
        <mxCell id="Yu3_qK6GPPjBEt-hAF3I-25" style="edgeStyle=orthogonalEdgeStyle;rounded=0;orthogonalLoop=1;jettySize=auto;html=1;entryX=0.5;entryY=0;entryDx=0;entryDy=0;" edge="1" parent="1" source="Yu3_qK6GPPjBEt-hAF3I-23" target="Yu3_qK6GPPjBEt-hAF3I-24">
          <mxGeometry relative="1" as="geometry" />
        </mxCell>
        <mxCell id="Yu3_qK6GPPjBEt-hAF3I-23" value="On Allume&lt;br&gt;la plaque" style="shape=process;whiteSpace=wrap;html=1;backgroundOutline=1;" vertex="1" parent="1">
          <mxGeometry x="220" y="490" width="120" height="60" as="geometry" />
        </mxCell>
        <mxCell id="Yu3_qK6GPPjBEt-hAF3I-27" style="edgeStyle=orthogonalEdgeStyle;rounded=0;orthogonalLoop=1;jettySize=auto;html=1;" edge="1" parent="1" source="Yu3_qK6GPPjBEt-hAF3I-24" target="Yu3_qK6GPPjBEt-hAF3I-26">
          <mxGeometry relative="1" as="geometry" />
        </mxCell>
        <mxCell id="Yu3_qK6GPPjBEt-hAF3I-28" value="Oui" style="edgeLabel;html=1;align=center;verticalAlign=middle;resizable=0;points=[];" vertex="1" connectable="0" parent="Yu3_qK6GPPjBEt-hAF3I-27">
          <mxGeometry x="-0.2154" y="-2" relative="1" as="geometry">
            <mxPoint as="offset" />
          </mxGeometry>
        </mxCell>
        <mxCell id="Yu3_qK6GPPjBEt-hAF3I-30" style="edgeStyle=orthogonalEdgeStyle;rounded=0;orthogonalLoop=1;jettySize=auto;html=1;entryX=0.5;entryY=0;entryDx=0;entryDy=0;" edge="1" parent="1" source="Yu3_qK6GPPjBEt-hAF3I-24" target="Yu3_qK6GPPjBEt-hAF3I-29">
          <mxGeometry relative="1" as="geometry" />
        </mxCell>
        <mxCell id="Yu3_qK6GPPjBEt-hAF3I-31" value="Non" style="edgeLabel;html=1;align=center;verticalAlign=middle;resizable=0;points=[];" vertex="1" connectable="0" parent="Yu3_qK6GPPjBEt-hAF3I-30">
          <mxGeometry x="-0.2857" y="-1" relative="1" as="geometry">
            <mxPoint as="offset" />
          </mxGeometry>
        </mxCell>
        <mxCell id="Yu3_qK6GPPjBEt-hAF3I-24" value="Es-ce moins&lt;br&gt;TimeToExecute" style="rhombus;whiteSpace=wrap;html=1;" vertex="1" parent="1">
          <mxGeometry x="240" y="610" width="80" height="80" as="geometry" />
        </mxCell>
        <mxCell id="Yu3_qK6GPPjBEt-hAF3I-26" value="On laisse Allumé" style="shape=process;whiteSpace=wrap;html=1;backgroundOutline=1;" vertex="1" parent="1">
          <mxGeometry x="580" y="620" width="120" height="60" as="geometry" />
        </mxCell>
        <mxCell id="Yu3_qK6GPPjBEt-hAF3I-29" value="On eteint" style="shape=process;whiteSpace=wrap;html=1;backgroundOutline=1;" vertex="1" parent="1">
          <mxGeometry x="220" y="760" width="120" height="60" as="geometry" />
        </mxCell>
      </root>
    </mxGraphModel>
  </diagram>
</mxfile>
